<?xml version="1.0" standalone="no"?>
<!DOCTYPE svg PUBLIC "-//W3C//DTD SVG 20010904//EN"
 "http://www.w3.org/TR/2001/REC-SVG-20010904/DTD/svg10.dtd">
<svg version="1.0" xmlns="http://www.w3.org/2000/svg"
 width="50.000000pt" height="50.000000pt" viewBox="0 0 50.000000 50.000000"
 preserveAspectRatio="xMidYMid meet">

<g transform="translate(0.000000,50.000000) scale(0.100000,-0.100000)"
fill="#000000" stroke="none">
<path d="M220 426 c-27 -33 18 -72 48 -42 13 13 14 20 6 34 -15 23 -38 26 -54
8z"/>
<path d="M50 406 c-27 -33 18 -72 48 -42 13 13 14 20 6 34 -15 23 -38 26 -54
8z"/>
<path d="M390 406 c-27 -33 18 -72 48 -42 13 13 14 20 6 34 -15 23 -38 26 -54
8z"/>
<path d="M196 334 c-9 -8 -16 -26 -16 -40 0 -23 3 -24 65 -24 62 0 65 1 65 24
0 34 -25 56 -65 56 -18 0 -41 -7 -49 -16z"/>
<path d="M52 318 c-16 -16 -16 -130 0 -146 7 -7 27 -12 44 -12 32 0 33 -1 36
-47 3 -40 6 -48 23 -48 18 0 20 7 20 70 l0 70 -32 3 c-32 3 -33 5 -33 51 0 46
-12 71 -35 71 -6 0 -16 -5 -23 -12z"/>
<path d="M392 318 c-7 -7 -12 -33 -12 -59 0 -46 -1 -48 -32 -51 l-33 -3 0 -70
c0 -63 2 -70 20 -70 17 0 20 8 23 48 3 46 4 47 36 47 46 0 56 16 56 85 0 58
-11 85 -35 85 -6 0 -16 -5 -23 -12z"/>
<path d="M0 222 c0 -48 4 -62 23 -80 24 -22 87 -31 87 -12 0 6 -13 10 -29 10
-45 0 -61 23 -61 86 0 30 -4 54 -10 54 -6 0 -10 -26 -10 -58z"/>
<path d="M470 226 c0 -63 -16 -86 -61 -86 -16 0 -29 -4 -29 -10 0 -5 15 -10
33 -10 52 0 77 33 77 103 0 31 -4 57 -10 57 -5 0 -10 -24 -10 -54z"/>
<path d="M130 240 c0 -6 45 -10 115 -10 70 0 115 4 115 10 0 6 -45 10 -115 10
-70 0 -115 -4 -115 -10z"/>
</g>
</svg>
